PathFileType	4	(X/Y/Z)	C:/Users/dbak576/Desktop/Duncan Bakke Modelling Files/H30s1/Static_H30s1.trc	
DataRate	CameraRate	NumFrames	NumMarkers	Units	OrigDataRate	OrigDataStartFrame	OrigNumFrames	
200.00	200.00	4	63	mm	200.00	1549	360	
Frame#	Time	LFHD			RFHD			LBHD			RBHD			C7			T10			CLAV			RBack			LASI			RASI			LPSI			RPSI			RACR1			RUA1			RElbow			RElbowM			RFA1			RWRR			RWRU			RCAR			LACR1			LUA1			LElbow			LElbowM			LFA1			LWRR			LWRU			LCAR			RTH1			RTH3			RTH2			RTH4			RLFC			RMFC			RTB1			RTB3			RTB2			RTB4			RLMAL			RMMAL			RMT1			RMT5			RToe			LTH1			LTH3			LTH2			LTH4			LLFC			LMFC			LTB1			LTB3			LTB2			LTB4			LLMAL			LMMAL			LCAL			LMT1			LMT5			LToe			RCAL			STRN			*61			*62			
		X1	Y1	Z1	X2	Y2	Z2	X3	Y3	Z3	X4	Y4	Z4	X5	Y5	Z5	X6	Y6	Z6	X7	Y7	Z7	X8	Y8	Z8	X9	Y9	Z9	X10	Y10	Z10	X11	Y11	Z11	X12	Y12	Z12	X13	Y13	Z13	X14	Y14	Z14	X15	Y15	Z15	X16	Y16	Z16	X17	Y17	Z17	X18	Y18	Z18	X19	Y19	Z19	X20	Y20	Z20	X21	Y21	Z21	X22	Y22	Z22	X23	Y23	Z23	X24	Y24	Z24	X25	Y25	Z25	X26	Y26	Z26	X27	Y27	Z27	X28	Y28	Z28	X29	Y29	Z29	X30	Y30	Z30	X31	Y31	Z31	X32	Y32	Z32	X33	Y33	Z33	X34	Y34	Z34	X35	Y35	Z35	X36	Y36	Z36	X37	Y37	Z37	X38	Y38	Z38	X39	Y39	Z39	X40	Y40	Z40	X41	Y41	Z41	X42	Y42	Z42	X43	Y43	Z43	X44	Y44	Z44	X45	Y45	Z45	X46	Y46	Z46	X47	Y47	Z47	X48	Y48	Z48	X49	Y49	Z49	X50	Y50	Z50	X51	Y51	Z51	X52	Y52	Z52	X53	Y53	Z53	X54	Y54	Z54	X55	Y55	Z55	X56	Y56	Z56	X57	Y57	Z57	X58	Y58	Z58	X59	Y59	Z59	X60	Y60	Z60	X61	Y61	Z61	X62	Y62	Z62	X63	Y63	Z63	

271	1.350	-40.79202	-341.85980	1589.48218	59.28654	-335.25677	1593.06482	-53.65475	-495.09607	1554.30371	89.81328	-484.18976	1564.52979	16.15715	-517.85095	1425.33276	18.72150	-547.43866	1197.52881	18.04775	-392.58627	1343.11548	86.53557	-571.08069	1281.17322	-96.80158	-343.76913	920.07813	155.59489	-351.77457	939.02655	-25.45510	-524.75439	965.16986	74.15087	-525.35779	964.90436	162.48802	-492.10046	1384.67554	299.36203	-477.03262	1327.67810	452.83405	-429.51218	1302.49731	422.42035	-372.06836	1272.26074	579.04053	-404.12634	1341.50269	674.14673	-346.76700	1400.94788	691.21857	-336.96634	1334.84021	753.96686	-326.92896	1386.96716	-117.08493	-483.72577	1395.51501	-260.04385	-488.92795	1333.25537	-405.25613	-450.84186	1295.59485	-391.03726	-397.82492	1260.02844	-535.98285	-404.07831	1337.32971	-620.62866	-342.99258	1399.74377	-632.80597	-316.95761	1338.42065	-697.92407	-322.00742	1389.93262	241.74013	-411.48102	775.93665	224.04291	-422.79013	604.77246	211.27655	-362.68900	690.07410	232.35887	-417.93015	687.90393	213.00226	-432.53448	457.11597	89.69861	-468.48276	435.15231	196.85506	-415.68823	348.41373	201.99660	-431.15744	176.18584	240.97723	-469.08365	267.88574	200.80241	-422.59753	261.88882	225.51913	-487.08008	68.58473	145.11084	-470.66400	80.31659	156.60521	-347.64828	34.44813	245.05724	-380.06235	24.53288	184.50386	-289.66879	25.96431	-175.23889	-408.63492	761.04199	-162.10861	-430.80286	590.89258	-149.04616	-364.90317	669.70630	-171.21017	-420.22055	675.40125	-156.87305	-452.00070	451.89551	-27.07411	-473.23270	428.61407	-107.26476	-414.37628	346.72598	-118.23650	-429.93979	177.01207	-171.82596	-443.23999	266.91730	-113.30514	-425.81714	261.10318	-171.19908	-485.09146	69.43175	-91.12823	-468.32401	79.19971	-130.74338	-535.89722	33.30060	-111.02084	-342.59265	29.98461	-193.21378	-376.26749	24.84599	-140.05493	-283.53412	24.97835	186.55064	-535.42554	38.82684	19.30628	-342.26379	1221.19165						 
272	1.355	-40.76771	-341.86777	1589.47827	59.21490	-335.38959	1593.07715	-53.66611	-495.14957	1554.34009	90.49635	-484.28055	1564.62256	16.19611	-517.85974	1425.32898	18.76261	-547.45367	1197.52734	18.05706	-392.59097	1343.12476	86.51355	-571.09369	1281.17346	-96.75980	-343.80414	920.07648	155.63741	-351.78601	939.04144	-25.44750	-524.75146	965.16730	74.12109	-525.40979	964.90869	162.46362	-492.11063	1384.71057	299.35562	-477.05893	1327.66174	452.87442	-429.53809	1302.52380	422.39264	-372.06503	1272.24976	579.11804	-404.03406	1341.42029	674.18372	-346.77509	1400.95227	691.21106	-336.98035	1334.86804	753.93799	-326.95187	1386.96814	-117.10088	-483.74475	1395.52380	-260.09784	-488.97699	1333.27686	-405.28925	-450.86560	1295.60974	-391.04276	-397.83914	1260.07703	-535.90051	-404.04547	1337.32227	-620.62103	-342.97812	1399.75452	-632.78320	-316.94986	1338.44348	-697.92993	-322.02560	1389.98425	241.70927	-411.48074	775.92316	224.05206	-422.78479	604.76538	211.23701	-362.66061	690.12299	232.31313	-417.91537	687.89532	213.04059	-432.54236	457.10529	89.70594	-468.47430	435.16403	196.86819	-415.68579	348.42468	201.99887	-431.14996	176.19084	241.20569	-468.89474	267.89227	200.80450	-422.61356	261.89780	225.54872	-487.10333	68.61531	145.09450	-470.65753	80.32474	156.68413	-347.66010	34.37833	245.07759	-380.08078	24.54263	184.51874	-289.68277	25.90161	-175.24004	-408.63843	761.04395	-162.12823	-430.77237	590.90161	-149.03363	-364.85846	669.73029	-171.24553	-420.25507	675.41284	-156.86241	-451.96753	451.90155	-27.04434	-473.19919	428.58966	-107.25265	-414.37344	346.71445	-118.24805	-429.92947	176.99576	-171.80931	-443.20230	266.90677	-113.31577	-425.76135	261.13409	-171.15182	-485.12817	69.53497	-91.10392	-468.33096	79.19102	-130.74203	-535.95068	33.36964	-111.02156	-342.65286	30.00371	-193.18205	-376.27075	24.85740	-140.05850	-283.54529	24.97529	186.66031	-535.53540	39.25589	19.30676	-342.26773	1221.19165						 
273	1.360	-40.74829	-341.89627	1589.47290	59.28428	-335.26532	1593.04529	-53.58231	-495.13251	1554.31238	90.54766	-484.24588	1564.64929	16.21528	-517.85242	1425.33850	18.72521	-547.43964	1197.52905	18.04968	-392.60086	1343.12817	86.54085	-571.11707	1281.13953	-96.77554	-343.74142	920.09253	155.63037	-351.78738	939.03027	-25.45675	-524.70581	965.16913	74.16177	-525.35632	964.88293	162.49931	-492.08423	1384.70947	299.37210	-477.05536	1327.67163	452.87811	-429.54025	1302.50183	422.47043	-372.50537	1272.27454	579.13666	-404.03955	1341.42297	674.16840	-346.80072	1400.95129	691.24365	-336.98831	1334.87048	753.93542	-326.95428	1386.98364	-117.00667	-483.74118	1395.50610	-260.02570	-488.92410	1333.24011	-405.23892	-450.83179	1295.61792	-391.03400	-397.81198	1260.02612	-535.88080	-404.09827	1337.32275	-620.59503	-342.99164	1399.75598	-632.78192	-317.05655	1338.48535	-697.93909	-322.02954	1389.98926	241.71066	-411.48859	775.93005	224.04303	-422.79013	604.77258	211.25829	-362.66397	690.10443	232.33066	-417.89255	687.88922	213.04080	-432.55368	457.12561	89.69926	-468.48755	435.13242	196.86159	-415.67288	348.42542	202.03015	-431.16229	176.18080	241.20775	-468.88623	267.90302	200.81262	-422.61661	261.89294	225.52554	-487.18558	68.81260	145.11086	-470.66385	80.31997	156.62776	-347.63638	34.43398	245.06224	-380.06616	24.53662	184.50069	-289.66766	25.95745	-175.23607	-408.63715	761.04999	-162.12704	-430.76617	590.87604	-149.03287	-364.85165	669.72943	-171.20543	-420.22327	675.42249	-156.85675	-452.00336	451.91797	-27.28288	-473.37958	428.64764	-107.26321	-414.34674	346.72949	-118.25271	-429.93924	176.99608	-171.80205	-443.19519	266.89026	-113.28651	-425.82053	261.10406	-171.15091	-485.11417	69.57000	-91.12279	-468.32220	79.19113	-130.71289	-535.94012	33.39495	-110.99290	-342.47043	30.10664	-193.16348	-376.28143	24.85555	-140.05373	-283.56842	24.93973	186.76158	-535.13293	38.74047	19.32278	-342.29657	1221.19580						 
274	1.365	-40.74880	-341.90619	1589.48035	59.30009	-335.26300	1593.04004	-53.59348	-495.16846	1554.31165	90.64076	-484.27713	1564.66565	16.23043	-517.87628	1425.34155	18.78790	-547.42932	1197.52332	18.12111	-392.70346	1343.07727	86.52625	-571.12280	1281.14636	-96.75798	-343.75992	920.07312	155.62787	-351.78683	939.02905	-25.45135	-524.73169	965.16595	74.12654	-525.37317	964.90411	162.52150	-492.11954	1384.68591	299.37323	-477.09003	1327.66492	452.87698	-429.53979	1302.52234	422.50439	-372.62576	1272.28394	579.18451	-404.05408	1341.45325	674.19116	-346.83347	1401.02185	691.23779	-337.06171	1334.88977	753.95306	-327.01831	1387.00891	-117.09441	-483.83075	1395.52478	-260.01498	-488.91833	1333.23572	-405.28030	-450.86142	1295.63708	-391.04837	-397.80780	1260.04944	-535.89020	-404.10934	1337.31812	-620.56866	-342.98831	1399.80249	-632.79108	-316.97995	1338.46155	-697.84564	-322.00476	1389.97266	241.73114	-411.48795	775.93402	224.02795	-422.74219	604.78241	211.26320	-362.67123	690.11340	232.35678	-417.89331	687.90356	213.08478	-432.67566	457.20877	89.71387	-468.52762	435.15906	196.84401	-415.66812	348.41138	202.02525	-431.16364	176.19083	241.21707	-468.88129	267.86807	200.80551	-422.57813	261.89288	225.56377	-487.09546	68.58344	145.11230	-470.66342	80.31710	156.67873	-347.68320	34.36969	245.07890	-380.07855	24.51521	184.51570	-289.67242	25.97712	-175.21202	-408.62262	761.07599	-162.08589	-430.75085	590.88586	-149.03192	-364.85318	669.72949	-171.23039	-420.23895	675.42706	-156.84995	-451.97330	451.91666	-27.10710	-473.20483	428.59454	-107.26268	-414.32285	346.72327	-118.23278	-429.93491	176.99612	-171.78677	-443.18872	266.91309	-113.29409	-425.80881	261.12485	-171.16122	-485.15088	69.56237	-91.14635	-468.28870	79.18866	-130.70938	-535.94305	33.39951	-111.00931	-342.60864	30.00320	-193.19658	-376.26514	24.85101	-140.06464	-283.53848	24.97483	186.75746	-535.08337	38.66438	19.23128	-342.15985	1221.20642						 
